<svg xmlns="http://www.w3.org/2000/svg" viewBox="0 0 64 64">
  <path d="M24.6 36.2s-2 1.2 1.4 1.6c4.1.5 6.2.4 10.7-.4 0 0 1.2.7 2.8 1.4-10 4.3-22.7-.2-14.9-2.6Zm-1.2-5.8s-2.2 1.7 1.2 2c4.4.4 7.8.5 13.8-.6 0 0 .8.8 2.1 1.3-12.1 3.5-25.6.3-17.1-2.7Z" fill="#5382A1"/>
  <path d="M34.4 23.3c2.5 2.8-.7 5.4-.7 5.4s6.2-3.2 3.3-7.2c-2.6-3.7-4.6-5.6 6.3-12 0 0-17.1 4.3-8.9 13.8Z" fill="#E76F00"/>
  <path d="M46 39.5s1.5 1.2-1.6 2.2c-5.9 1.8-24.5 2.3-29.7.1-1.9-.8 1.6-1.9 2.7-2.2 1.2-.3 1.8-.2 1.8-.2-2.1-1.5-13.5 2.9-5.8 4.1 21 3.4 38.3-1.5 32.6-3.9Zm-21-15s-9.6 2.3-3.4 3.1c2.6.3 7.8.3 12.7-.1 4-.4 8-1.2 8-1.2s-1.4.6-2.4 1.3c-9.8 2.6-28.7 1.4-23.2-1.3 4.6-2.2 8.3-1.8 8.3-1.8Zm17.3 9.7c10-5.2 5.4-10.2 2.1-9.5-.8.2-1.1.3-1.1.3s.3-.5.9-.7c6.4-2.2 11.3 6.6-2.1 10.1 0 0 .1-.1.2-.2Z" fill="#5382A1"/>
  <path d="M36.5 4s5.5 5.5-5.2 14c-8.6 6.8-2 10.7 0 15.1-5-4.5-8.7-8.5-6.2-12.2C28.7 15.5 38.8 12.4 36.5 4Z" fill="#E76F00"/>
  <path d="M25.5 57.3c9.6.6 24.3-.3 24.7-4.8 0 0-.7 1.7-8 3.1-8.2 1.5-18.4 1.3-24.4.4 0 0 1.2 1 7.7 1.3Z" fill="#5382A1"/>
</svg>
