<svg xmlns="http://www.w3.org/2000/svg" viewBox="0 0 100 100" fill="none">
  <mask id="a" width="100" height="100" x="0" y="0" maskUnits="userSpaceOnUse" style="mask-type:alpha">
    <path fill="#fff" fill-rule="evenodd" d="M70.912 99.317a6.223 6.223 0 0 0 4.96-.19l20.589-9.907A6.25 6.25 0 0 0 100 83.587V16.413a6.25 6.25 0 0 0-3.539-5.632L75.872.874a6.226 6.226 0 0 0-7.104 1.27L29.355 38.04 12.187 25.01a4.162 4.162 0 0 0-5.318.248l-5.5 5.009a4.168 4.168 0 0 0-.004 6.155L17.18 50 1.365 63.578a4.168 4.168 0 0 0 .004 6.155l5.5 5.009a4.162 4.162 0 0 0 5.318.247l17.168-13.03 39.413 35.9a6.206 6.206 0 0 0 2.144 1.458ZM75.016 27.17 45.528 50l29.488 22.83V27.17Z" clip-rule="evenodd"/>
  </mask>
  <g mask="url(#a)">
    <path fill="#0065A9" d="M96.461.874 75.857.867a6.227 6.227 0 0 0-7.104 1.271L29.355 38.04 12.187 25.01a4.163 4.163 0 0 0-5.318.247l-5.5 5.01a4.167 4.167 0 0 0-.004 6.155L17.18 50 1.365 63.578a4.167 4.167 0 0 0 .004 6.155l5.5 5.01a4.163 4.163 0 0 0 5.318.247l17.168-13.03 39.398 35.906a6.226 6.226 0 0 0 7.104 1.271L96.46 89.233A6.25 6.25 0 0 0 100 83.6V16.4a6.25 6.25 0 0 0-3.539-5.632V.874Z"/>
    <path fill="#007ACC" d="m96.461 89.126-20.604 9.907a6.226 6.226 0 0 1-7.104-1.271L29.355 61.868 12.187 74.898a4.163 4.163 0 0 1-5.318-.247l-5.5-5.01a4.167 4.167 0 0 1-.004-6.155L17.18 50 1.365 36.422a4.167 4.167 0 0 1 .004-6.155l5.5-5.01a4.163 4.163 0 0 1 5.318-.247l17.168 13.03L68.753 2.134a6.226 6.226 0 0 1 7.104-1.271l20.604 9.906A6.25 6.25 0 0 1 100 16.4v67.2a6.25 6.25 0 0 1-3.539 5.632v-.106Z"/>
    <path fill="#1F9CF0" d="M75.872 99.126a6.227 6.227 0 0 1-7.104-1.271c2.358 2.358 6.382.688 6.382-2.649V4.794c0-3.337-4.024-5.007-6.382-2.649a6.227 6.227 0 0 1 7.104-1.271l20.589 9.906A6.25 6.25 0 0 1 100 16.413v67.174a6.25 6.25 0 0 1-3.539 5.632L75.872 99.126Z"/>
  </g>
</svg>
